<svg width="22" height="18" viewBox="0 0 22 18" fill="none" xmlns="http://www.w3.org/2000/svg">
<path d="M21.7562 2.57678C20.9748 2.91954 20.1422 3.14674 19.2741 3.25705C20.1671 2.72387 20.8487 1.886 21.1691 0.876101C20.3365 1.37252 19.4172 1.72316 18.4375 1.91884C17.647 1.07703 16.5202 0.555664 15.291 0.555664C12.9061 0.555664 10.9861 2.49142 10.9861 4.86449C10.9861 5.20594 11.015 5.53426 11.0859 5.84682C7.50459 5.67215 4.33568 3.95571 2.20688 1.341C1.83522 1.98581 1.61722 2.72387 1.61722 3.51839C1.61722 5.01026 2.38548 6.33272 3.53065 7.09836C2.83856 7.08523 2.1596 6.8843 1.58439 6.5678C1.58439 6.58093 1.58439 6.598 1.58439 6.61508C1.58439 8.70842 3.07757 10.4472 5.03565 10.8477C4.68501 10.9436 4.30285 10.9896 3.90624 10.9896C3.63046 10.9896 3.35204 10.9738 3.0907 10.916C3.64884 12.622 5.23264 13.8761 7.11587 13.9168C5.65026 15.0633 3.78936 15.7541 1.77481 15.7541C1.42154 15.7541 1.08272 15.7383 0.743896 15.695C2.65207 16.9255 4.91352 17.6281 7.35225 17.6281C15.2791 17.6281 19.6129 11.0618 19.6129 5.3701C19.6129 5.17968 19.6063 4.99582 19.5972 4.81327C20.4521 4.20655 21.1704 3.44879 21.7562 2.57678Z" fill="#00CFFF"/>
</svg>
