<svg width="170" height="51" viewBox="0 0 170 51" fill="none" xmlns="http://www.w3.org/2000/svg">
<rect x="0.5" y="0.938232" width="169" height="49" rx="2.5" fill="#373F4A" stroke="#373F4A"/>
<path d="M13.0533 20.8624C10.3848 25.4981 12.0783 32.5114 15.0205 36.7707C16.4916 38.909 17.9969 40.8248 20.0325 40.8248H20.1522C20.9556 40.7648 21.7398 40.5499 22.4615 40.1919C23.3215 39.7782 24.2612 39.5564 25.2155 39.5419C26.1245 39.552 27.0194 39.7684 27.8327 40.1748C28.6128 40.5673 29.4739 40.7723 30.3472 40.7735C32.6394 40.7735 34.0591 38.6695 35.3079 36.8563C36.2389 35.4841 36.9703 33.9866 37.4803 32.4088C37.5026 32.3498 37.5008 32.2844 37.4752 32.2267C37.4495 32.169 37.4022 32.1238 37.3434 32.1009C36.1573 31.6023 35.1422 30.7689 34.4222 29.7026C33.7022 28.6363 33.3086 27.3833 33.2894 26.0968C33.3001 24.9595 33.5991 23.8435 34.1586 22.8533C34.718 21.863 35.5196 21.0309 36.4882 20.4348C36.5378 20.3886 36.5734 20.3293 36.5908 20.2637C36.6157 20.1976 36.6157 20.1246 36.5908 20.0585C35.9262 19.1098 35.0502 18.3286 34.032 17.7764C33.0138 17.2243 31.8811 16.9163 30.7235 16.8768H30.159C28.887 16.9446 27.6392 17.2522 26.4813 17.7834C25.9421 18.0479 25.365 18.2268 24.7707 18.3137C24.1406 18.2413 23.5274 18.062 22.9575 17.7834C21.9478 17.2714 20.8514 16.9524 19.7246 16.8426H19.639C18.2896 16.8956 16.9762 17.2927 15.8236 17.9963C14.6709 18.6999 13.7173 19.6865 13.0533 20.8624Z" fill="white"/>
<path d="M30.7235 9.26477C28.8837 9.44128 27.1817 10.3168 25.9682 11.7109C25.3607 12.3849 24.896 13.1749 24.602 14.0334C24.308 14.8918 24.1909 15.8008 24.2576 16.7058C24.2648 16.7668 24.2924 16.8235 24.3358 16.867C24.3793 16.9104 24.4361 16.938 24.4971 16.9452H24.8221C25.6923 16.9071 26.5441 16.6828 27.3202 16.2874C28.0963 15.892 28.7785 15.3347 29.3209 14.6531C30.5411 13.2325 31.1553 11.3899 31.0314 9.52136C31.0294 9.4838 31.0196 9.44708 31.0028 9.41347C30.9859 9.37986 30.9623 9.35008 30.9334 9.32601C30.9045 9.30193 30.8709 9.28407 30.8348 9.27353C30.7987 9.263 30.7608 9.26001 30.7235 9.26477Z" fill="white"/>
<path d="M49.4886 8.99105H52.5848C53.1124 8.92912 53.6471 8.9796 54.1538 9.13916C54.6605 9.29871 55.1277 9.56374 55.5246 9.9168C55.9215 10.2699 56.2392 10.7029 56.4567 11.1876C56.6743 11.6722 56.7867 12.1974 56.7867 12.7287C56.7867 13.2599 56.6743 13.7851 56.4567 14.2697C56.2392 14.7544 55.9215 15.1874 55.5246 15.5405C55.1277 15.8936 54.6605 16.1586 54.1538 16.3181C53.6471 16.4777 53.1124 16.5282 52.5848 16.4662H49.4886V8.99105ZM52.5335 15.9702C52.9934 16.0282 53.4604 15.9876 53.9034 15.8512C54.3464 15.7148 54.7554 15.4857 55.1031 15.1791C55.4508 14.8725 55.7292 14.4955 55.9199 14.073C56.1107 13.6505 56.2093 13.1922 56.2093 12.7287C56.2093 12.2651 56.1107 11.8068 55.9199 11.3843C55.7292 10.9618 55.4508 10.5848 55.1031 10.2782C54.7554 9.97157 54.3464 9.74246 53.9034 9.60608C53.4604 9.46969 52.9934 9.42914 52.5335 9.48712H50.0531V16.0386L52.5335 15.9702Z" fill="white"/>
<path d="M57.8874 13.7465C57.867 13.1641 58.021 12.5888 58.3297 12.0944C58.6384 11.6001 59.0878 11.2093 59.6202 10.9721C60.1525 10.7348 60.7436 10.6621 61.3176 10.7631C61.8916 10.8641 62.4224 11.1343 62.8418 11.5389C63.2612 11.9436 63.5501 12.4644 63.6716 13.0344C63.793 13.6045 63.7414 14.1978 63.5233 14.7383C63.3053 15.2788 62.9307 15.7418 62.4477 16.068C61.9647 16.3941 61.3953 16.5686 60.8125 16.569C60.4315 16.5902 60.0502 16.5326 59.6925 16.3996C59.3348 16.2667 59.0084 16.0613 58.7338 15.7963C58.4592 15.5313 58.2423 15.2125 58.0966 14.8598C57.951 14.5071 57.8798 14.1281 57.8874 13.7465ZM63.156 13.7465C63.156 13.125 62.9091 12.5289 62.4696 12.0894C62.0301 11.6499 61.434 11.403 60.8125 11.403C60.191 11.403 59.5949 11.6499 59.1554 12.0894C58.7159 12.5289 58.469 13.125 58.469 13.7465C58.469 14.3681 58.7159 14.9641 59.1554 15.4036C59.5949 15.8431 60.191 16.09 60.8125 16.09C61.434 16.09 62.0301 15.8431 62.4696 15.4036C62.9091 14.9641 63.156 14.3681 63.156 13.7465Z" fill="white"/>
<path d="M73.6076 10.9583L71.401 16.5347H70.8707L68.9035 11.6938L66.9364 16.5347H66.4232L64.1995 10.9583H64.7468L66.6798 15.936L68.6812 10.9583H69.1601L71.2128 15.9189L73.18 10.9583H73.6076Z" fill="white"/>
<path d="M80.125 13.2675V16.5347H79.5605V13.3188C79.593 13.0624 79.567 12.802 79.4845 12.5572C79.4019 12.3123 79.265 12.0893 79.0839 11.9049C78.9028 11.7206 78.6823 11.5796 78.439 11.4927C78.1956 11.4057 77.9357 11.3751 77.6788 11.403C77.3858 11.3751 77.0901 11.4112 76.8124 11.5088C76.5346 11.6063 76.2813 11.7629 76.0699 11.9678C75.8585 12.1726 75.6941 12.4209 75.5879 12.6955C75.4818 12.9701 75.4365 13.2645 75.4551 13.5583V16.5347H74.9077V10.9582H75.438V12.1556C75.6668 11.7527 76.0052 11.423 76.4141 11.205C76.8229 10.9869 77.2852 10.8895 77.7473 10.924C78.0649 10.8896 78.3863 10.9263 78.688 11.0315C78.9898 11.1366 79.2644 11.3075 79.492 11.5318C79.7195 11.7561 79.8944 12.0282 80.0039 12.3284C80.1133 12.6286 80.1547 12.9493 80.125 13.2675Z" fill="white"/>
<path d="M82.4171 8.61475H82.9816V16.5347H82.4171V8.61475Z" fill="white"/>
<path d="M84.6921 13.7465C84.6716 13.1633 84.8261 12.5873 85.1356 12.0926C85.445 11.5979 85.8954 11.207 86.4288 10.9703C86.9622 10.7336 87.5542 10.6618 88.1287 10.7642C88.7032 10.8666 89.2339 11.1385 89.6526 11.5449C90.0714 11.9513 90.359 12.4737 90.4785 13.0449C90.598 13.6161 90.5439 14.21 90.3232 14.7502C90.1025 15.2904 89.7253 15.7522 89.24 16.0763C88.7547 16.4004 88.1836 16.572 87.6001 16.5689C87.2205 16.5878 86.841 16.5283 86.4854 16.3943C86.1297 16.2602 85.8054 16.0544 85.5327 15.7897C85.2599 15.525 85.0446 15.207 84.9 14.8555C84.7553 14.504 84.6846 14.1265 84.6921 13.7465ZM89.9436 13.7465C89.9436 13.125 89.6967 12.5289 89.2572 12.0894C88.8177 11.6499 88.2216 11.403 87.6001 11.403C86.9786 11.403 86.3825 11.6499 85.943 12.0894C85.5035 12.5289 85.2566 13.125 85.2566 13.7465C85.2566 14.368 85.5035 14.9641 85.943 15.4036C86.3825 15.8431 86.9786 16.09 87.6001 16.09C88.2216 16.09 88.8177 15.8431 89.2572 15.4036C89.6967 14.9641 89.9436 14.368 89.9436 13.7465Z" fill="white"/>
<path d="M96.4437 12.9939V16.5347H95.8963V15.5426C95.6729 15.8896 95.3587 16.1688 94.9877 16.3498C94.6168 16.5307 94.2034 16.6065 93.7923 16.569C92.4923 16.569 91.7054 15.936 91.7054 14.9781C91.7054 14.0202 92.2528 13.4215 93.8779 13.4215H95.8792V12.9768C95.8792 11.9333 95.2805 11.3859 94.1687 11.3859C93.4349 11.3786 92.7214 11.6265 92.1502 12.0873L91.8765 11.7109C92.5361 11.1848 93.3593 10.9064 94.2029 10.9241C95.6398 10.9241 96.4437 11.6254 96.4437 12.9939ZM95.8792 14.8926V13.8492H93.895C92.6805 13.8492 92.1844 14.3281 92.1844 14.961C92.1844 15.5939 92.7831 16.1413 93.895 16.1413C94.3141 16.1631 94.7297 16.0548 95.0849 15.8313C95.4401 15.6078 95.7176 15.2799 95.8792 14.8926Z" fill="white"/>
<path d="M103.919 8.61475V16.5347H103.372V15.2176C103.143 15.6441 102.799 15.9973 102.378 16.2364C101.957 16.4755 101.477 16.5908 100.994 16.5689C100.623 16.5689 100.256 16.4959 99.9139 16.3541C99.5714 16.2122 99.2603 16.0043 98.9982 15.7422C98.7361 15.4801 98.5282 15.169 98.3864 14.8266C98.2445 14.4841 98.1715 14.1171 98.1715 13.7465C98.1715 13.3758 98.2445 13.0088 98.3864 12.6664C98.5282 12.3239 98.7361 12.0128 98.9982 11.7507C99.2603 11.4886 99.5714 11.2807 99.9139 11.1389C100.256 10.997 100.623 10.924 100.994 10.924C101.472 10.9086 101.946 11.0228 102.364 11.2547C102.783 11.4866 103.131 11.8275 103.372 12.2412V8.61475H103.919ZM103.372 13.7465C103.321 13.1573 103.052 12.6084 102.616 12.2085C102.181 11.8086 101.611 11.5866 101.02 11.5866C100.428 11.5866 99.8585 11.8086 99.423 12.2085C98.9874 12.6084 98.7179 13.1573 98.6676 13.7465C98.7179 14.3356 98.9874 14.8845 99.423 15.2844C99.8585 15.6844 100.428 15.9063 101.02 15.9063C101.611 15.9063 102.181 15.6844 102.616 15.2844C103.052 14.8845 103.321 14.3356 103.372 13.7465Z" fill="white"/>
<path d="M108.503 13.7465C108.483 13.1641 108.637 12.5888 108.946 12.0944C109.254 11.6001 109.704 11.2093 110.236 10.9721C110.768 10.7348 111.359 10.6621 111.933 10.7631C112.507 10.8641 113.038 11.1343 113.458 11.5389C113.877 11.9436 114.166 12.4644 114.287 13.0344C114.409 13.6045 114.357 14.1978 114.139 14.7383C113.921 15.2788 113.547 15.7418 113.064 16.068C112.581 16.3941 112.011 16.5686 111.428 16.569C111.047 16.5902 110.666 16.5326 110.308 16.3996C109.951 16.2667 109.624 16.0613 109.35 15.7963C109.075 15.5313 108.858 15.2125 108.712 14.8598C108.567 14.5071 108.496 14.1281 108.503 13.7465ZM113.772 13.7465C113.772 13.125 113.525 12.5289 113.085 12.0894C112.646 11.6499 112.05 11.403 111.428 11.403C110.807 11.403 110.211 11.6499 109.771 12.0894C109.332 12.5289 109.085 13.125 109.085 13.7465C109.085 14.3681 109.332 14.9641 109.771 15.4036C110.211 15.8431 110.807 16.09 111.428 16.09C112.05 16.09 112.646 15.8431 113.085 15.4036C113.525 14.9641 113.772 14.3681 113.772 13.7465Z" fill="white"/>
<path d="M121.281 13.2675V16.5347H120.717V13.3188C120.749 13.0625 120.723 12.8021 120.641 12.5572C120.558 12.3123 120.421 12.0893 120.24 11.905C120.059 11.7206 119.839 11.5797 119.595 11.4927C119.352 11.4058 119.092 11.3751 118.835 11.403C118.543 11.3749 118.248 11.4108 117.971 11.5085C117.694 11.6061 117.441 11.763 117.231 11.9682C117.021 12.1734 116.858 12.4221 116.754 12.6967C116.65 12.9713 116.607 13.2654 116.628 13.5583V16.5347H116.064V10.9583H116.594V12.1557C116.824 11.75 117.165 11.4185 117.578 11.2002C117.99 10.982 118.456 10.8862 118.921 10.924C119.238 10.8892 119.558 10.9257 119.859 11.0309C120.161 11.1361 120.434 11.3074 120.661 11.532C120.887 11.7567 121.06 12.0292 121.167 12.3295C121.275 12.6298 121.314 12.9503 121.281 13.2675Z" fill="white"/>
<path d="M129.372 16.1755C129.038 16.4543 128.609 16.595 128.175 16.569C127.967 16.5979 127.754 16.5796 127.554 16.5155C127.354 16.4514 127.171 16.343 127.018 16.1985C126.865 16.0539 126.747 15.8769 126.672 15.6805C126.597 15.484 126.567 15.2732 126.584 15.0637V11.4201H125.523V10.9583H126.584V9.74377H127.148V10.9583H129.013V11.4201H127.114V15.0123C127.098 15.1601 127.115 15.3096 127.164 15.4498C127.214 15.59 127.294 15.7174 127.399 15.8225C127.504 15.9276 127.631 16.0077 127.772 16.057C127.912 16.1062 128.061 16.1234 128.209 16.1071C128.529 16.1271 128.845 16.0298 129.099 15.8334L129.372 16.1755Z" fill="white"/>
<path d="M136.112 13.2675V16.5347H135.547V13.3188C135.58 13.0625 135.554 12.8021 135.471 12.5572C135.389 12.3123 135.252 12.0893 135.071 11.9049C134.89 11.7206 134.669 11.5796 134.426 11.4927C134.183 11.4058 133.923 11.3751 133.666 11.403C133.373 11.3752 133.077 11.4113 132.799 11.5088C132.522 11.6063 132.268 11.7629 132.057 11.9678C131.845 12.1727 131.681 12.421 131.575 12.6956C131.469 12.9701 131.423 13.2645 131.442 13.5583V16.5347H130.895V8.61475H131.442V12.1214C131.676 11.729 132.014 11.4092 132.418 11.1977C132.823 10.9863 133.279 10.8915 133.734 10.924C134.052 10.8897 134.373 10.9264 134.675 11.0315C134.977 11.1366 135.251 11.3075 135.479 11.5318C135.706 11.7561 135.881 12.0282 135.991 12.3284C136.1 12.6286 136.142 12.9494 136.112 13.2675Z" fill="white"/>
<path d="M143.331 13.8662H138.319C138.329 14.1772 138.403 14.4828 138.534 14.7646C138.666 15.0465 138.853 15.2989 139.085 15.5066C139.317 15.7143 139.588 15.873 139.882 15.9733C140.177 16.0735 140.489 16.1132 140.799 16.09C141.147 16.1027 141.493 16.0406 141.815 15.9078C142.136 15.775 142.426 15.5746 142.663 15.3202L142.988 15.6623C142.708 15.9636 142.365 16.2005 141.984 16.357C141.603 16.5135 141.193 16.5858 140.782 16.5689C140.395 16.5973 140.007 16.5452 139.641 16.4159C139.275 16.2866 138.941 16.083 138.658 15.8177C138.375 15.5525 138.15 15.2315 137.997 14.875C137.845 14.5185 137.768 14.1343 137.771 13.7465C137.757 13.3735 137.82 13.0015 137.955 12.6537C138.091 12.306 138.297 11.9899 138.56 11.7251C138.823 11.4604 139.138 11.2526 139.485 11.1148C139.832 10.977 140.203 10.912 140.576 10.9241C140.947 10.9119 141.315 10.9764 141.659 11.1135C142.003 11.2506 142.315 11.4574 142.575 11.7209C142.836 11.9843 143.039 12.2988 143.171 12.6444C143.304 12.9901 143.364 13.3595 143.348 13.7294C143.348 13.7294 143.331 13.8149 143.331 13.8662ZM138.336 13.4557H142.8C142.751 12.8974 142.495 12.3777 142.082 11.9991C141.668 11.6205 141.128 11.4105 140.568 11.4105C140.007 11.4105 139.467 11.6205 139.054 11.9991C138.641 12.3777 138.385 12.8974 138.336 13.4557Z" fill="white"/>
<path d="M57.7506 33.0417H51.0793L49.7622 35.9839H47.2648L53.286 23.2401H55.6466L61.6849 35.9839H59.0848L57.7506 33.0417ZM56.9295 31.2285L54.415 25.652L51.9175 31.2285H56.9295Z" fill="white"/>
<path d="M73.9669 31.1259C73.987 31.7989 73.8669 32.4688 73.6143 33.093C73.3616 33.7172 72.982 34.2821 72.4995 34.7518C72.0169 35.2215 71.442 35.5857 70.8112 35.8214C70.1804 36.057 69.5075 36.159 68.8352 36.1207C68.2286 36.1436 67.624 36.0381 67.0609 35.8111C66.4979 35.5842 65.9892 35.2408 65.568 34.8036V39.5248H63.1732V26.2678H65.4483V27.5337C65.8811 27.0648 66.4123 26.6974 67.0037 26.4579C67.5952 26.2183 68.2323 26.1125 68.8694 26.1481C69.5381 26.1123 70.2069 26.2156 70.8336 26.4515C71.4603 26.6874 72.0312 27.0508 72.5103 27.5186C72.9893 27.9864 73.3662 28.5486 73.6169 29.1695C73.8676 29.7904 73.9868 30.4565 73.9669 31.1259ZM71.5379 31.1259C71.5345 30.527 71.3536 29.9427 71.0181 29.4467C70.6826 28.9507 70.2076 28.5653 69.6531 28.3393C69.0985 28.1132 68.4894 28.0567 67.9028 28.1769C67.3162 28.297 66.7783 28.5884 66.3573 29.0142C65.9362 29.44 65.6509 29.9811 65.5374 30.5691C65.4239 31.1571 65.4873 31.7655 65.7196 32.3174C65.9519 32.8694 66.3426 33.34 66.8424 33.6699C67.3421 33.9998 67.9285 34.174 68.5273 34.1707C68.9302 34.188 69.3323 34.1208 69.7076 33.9734C70.083 33.8261 70.4234 33.6018 70.707 33.315C70.9905 33.0283 71.2109 32.6854 71.354 32.3083C71.4971 31.9313 71.5598 31.5285 71.5379 31.1259Z" fill="white"/>
<path d="M87.0526 31.1259C87.0727 31.7989 86.9526 32.4688 86.7 33.093C86.4473 33.7172 86.0677 34.2821 85.5852 34.7518C85.1026 35.2215 84.5277 35.5857 83.8969 35.8214C83.2661 36.057 82.5932 36.159 81.9209 36.1207C81.3143 36.1436 80.7097 36.0381 80.1466 35.8111C79.5836 35.5842 79.0748 35.2408 78.6537 34.8036V39.5248H76.2589V26.2678H78.534V27.5337C78.9668 27.0648 79.498 26.6974 80.0894 26.4579C80.6809 26.2183 81.318 26.1125 81.9551 26.1481C82.6238 26.1123 83.2926 26.2156 83.9193 26.4515C84.5459 26.6874 85.1169 27.0508 85.596 27.5186C86.075 27.9864 86.4519 28.5486 86.7026 29.1695C86.9533 29.7904 87.0725 30.4565 87.0526 31.1259ZM84.6236 31.1259C84.6202 30.527 84.4393 29.9427 84.1038 29.4467C83.7683 28.9507 83.2933 28.5653 82.7388 28.3393C82.1842 28.1132 81.5751 28.0567 80.9885 28.1769C80.4018 28.297 79.864 28.5884 79.443 29.0142C79.0219 29.44 78.7366 29.9811 78.6231 30.5691C78.5096 31.1571 78.573 31.7655 78.8053 32.3174C79.0376 32.8694 79.4283 33.34 79.9281 33.6699C80.4278 33.9998 81.0142 34.174 81.613 34.1707C82.0159 34.188 82.418 34.1208 82.7933 33.9734C83.1687 33.8261 83.5091 33.6018 83.7927 33.315C84.0762 33.0283 84.2966 32.6854 84.4397 32.3083C84.5828 31.9313 84.6455 31.5285 84.6236 31.1259Z" fill="white"/>
<path d="M93.6897 34.6496L94.545 32.8193C95.8299 33.7305 97.3659 34.2206 98.9412 34.222C101.028 34.222 101.9 33.5036 101.9 32.5114C101.9 29.7574 93.9634 31.5706 93.9634 26.8323C93.9634 24.7625 95.674 23.0178 99.3517 23.0178C100.909 22.988 102.445 23.3779 103.799 24.1467L103.012 26.0968C101.893 25.4516 100.627 25.1042 99.3346 25.0876C97.2648 25.0876 96.4266 25.8573 96.4266 26.7981C96.4266 29.5179 104.347 27.756 104.347 32.4259C104.347 34.4786 102.636 36.2234 98.9412 36.2234C97.0672 36.2755 95.2261 35.7238 93.6897 34.6496Z" fill="white"/>
<path d="M112.711 35.4536C112.037 35.9123 111.234 36.1458 110.419 36.1208C109.961 36.189 109.494 36.1532 109.052 36.0159C108.61 35.8786 108.204 35.6434 107.866 35.3278C107.527 35.0122 107.264 34.6243 107.096 34.193C106.928 33.7616 106.859 33.298 106.895 32.8365V28.1495H105.185V26.3363H106.895V24.1125H109.29V26.3363H112.01V28.1495H109.29V32.7851C109.263 32.9779 109.28 33.1743 109.34 33.3595C109.401 33.5446 109.502 33.7136 109.637 33.8538C109.772 33.9939 109.938 34.1014 110.121 34.1681C110.303 34.2349 110.499 34.2592 110.693 34.2391C111.173 34.2541 111.647 34.1164 112.044 33.8457L112.711 35.4536Z" fill="white"/>
<path d="M113.481 31.1258C113.388 30.0302 113.628 28.9321 114.17 27.9752C114.712 27.0184 115.53 26.2476 116.517 25.7638C117.505 25.28 118.615 25.1058 119.703 25.2641C120.791 25.4223 121.806 25.9055 122.615 26.6505C123.424 27.3955 123.989 28.3674 124.235 29.4389C124.482 30.5103 124.4 31.6314 123.998 32.6552C123.597 33.6789 122.896 34.5575 121.987 35.1759C121.078 35.7943 120.003 36.1237 118.903 36.1207C118.214 36.1748 117.52 36.086 116.866 35.8598C116.212 35.6336 115.612 35.2748 115.103 34.806C114.594 34.3372 114.187 33.7683 113.908 33.1351C113.629 32.5019 113.483 31.8178 113.481 31.1258ZM121.931 31.1258C121.928 30.5278 121.747 29.9441 121.413 29.4484C121.078 28.9528 120.604 28.5674 120.05 28.3408C119.497 28.1143 118.888 28.0568 118.302 28.1755C117.716 28.2943 117.178 28.584 116.757 29.0081C116.335 29.4322 116.048 29.9717 115.933 30.5585C115.817 31.1454 115.878 31.7533 116.108 32.3055C116.337 32.8578 116.726 33.3296 117.223 33.6616C117.721 33.9935 118.305 34.1706 118.903 34.1707C119.308 34.1904 119.712 34.1251 120.089 33.9788C120.467 33.8325 120.809 33.6086 121.094 33.3216C121.38 33.0346 121.602 32.6908 121.746 32.3126C121.89 31.9343 121.953 31.53 121.931 31.1258Z" fill="white"/>
<path d="M132.52 26.0968V28.3206H131.972C131.579 28.2817 131.181 28.3298 130.808 28.4615C130.435 28.5931 130.095 28.8051 129.813 29.0825C129.53 29.3598 129.312 29.6958 129.174 30.0666C129.036 30.4375 128.981 30.8341 129.013 31.2285V35.9497H126.618V26.2679H128.893V27.6877C129.314 27.137 129.867 26.7021 130.501 26.4239C131.135 26.1456 131.83 26.0331 132.52 26.0968Z" fill="white"/>
<path d="M143.98 31.8443H135.992C136.163 32.5699 136.592 33.2082 137.2 33.6396C137.808 34.071 138.552 34.2659 139.293 34.1878C139.803 34.2091 140.312 34.126 140.789 33.9436C141.265 33.7612 141.699 33.4834 142.065 33.1273L143.33 34.5299C142.804 35.0742 142.166 35.4981 141.46 35.7727C140.755 36.0473 139.998 36.166 139.242 36.1208C135.821 36.1208 133.614 34.0168 133.614 31.1259C133.604 30.4435 133.734 29.7663 133.997 29.1366C134.26 28.5069 134.65 27.9382 135.143 27.4662C135.636 26.9941 136.221 26.6289 136.862 26.3933C137.502 26.1577 138.185 26.0567 138.866 26.0968C139.54 26.0609 140.215 26.1656 140.847 26.4042C141.479 26.6429 142.055 27.0103 142.537 27.4832C143.02 27.956 143.399 28.524 143.65 29.1511C143.902 29.7782 144.02 30.4507 143.998 31.1259C144.032 31.3654 143.998 31.6391 143.98 31.8443ZM135.975 30.339H141.757C141.663 29.6528 141.313 29.0276 140.776 28.5896C140.24 28.1515 139.557 27.9331 138.866 27.9785C138.177 27.9412 137.498 28.1625 136.963 28.5991C136.429 29.0357 136.076 29.6562 135.975 30.339Z" fill="white"/>
</svg>
