<svg width="136" height="27" viewBox="0 0 136 27" fill="none" xmlns="http://www.w3.org/2000/svg">
<path fill-rule="evenodd" clip-rule="evenodd" d="M30.25 2.08613L20.85 22.9861C20.75 23.3861 20.65 23.6861 20.55 23.8861C20.55 25.0861 21.45 25.9861 22.65 25.9861C23.65 25.9861 24.35 25.4861 24.75 24.5861L26.85 19.6861H39.05L41.15 24.3861C41.55 25.3861 42.35 25.9861 43.35 25.9861C44.55 25.9861 45.45 25.0861 45.45 23.8861C45.45 23.5861 45.35 23.2861 45.15 22.9861L35.75 2.08613C35.25 0.986133 34.45 0.286133 33.15 0.286133H32.95C31.65 0.286133 30.75 0.986133 30.25 2.08613ZM32.95 5.68613L37.45 15.8861H28.55L32.95 5.68613ZM2.45 0.686157C1.25 0.686157 0.25 1.58616 0.25 2.88616H0.35V23.8862C0.35 25.0862 1.25 26.0862 2.55 26.0862C3.75 26.0862 4.75 25.0862 4.75 23.8862V17.7862H9.75C15.35 17.7862 19.85 14.8862 19.85 9.18616V9.08616C19.85 4.08616 16.15 0.686157 10.25 0.686157H2.45ZM15.25 9.28616C15.25 11.8862 13.25 13.7862 9.85 13.7862H4.65V4.68616H9.85C13.15 4.68616 15.25 6.18616 15.25 9.18616V9.28616ZM50.25 2.88616C50.25 1.58616 51.25 0.686157 52.45 0.686157H61.45C64.65 0.686157 67.15 1.58616 68.75 3.18616C70.05 4.58616 70.85 6.38616 70.85 8.58616V8.68616C70.85 12.6862 68.55 15.1862 65.15 16.1862L69.95 22.2862C70.35 22.7862 70.65 23.2862 70.65 23.9862C70.65 25.1862 69.65 26.0862 68.55 26.0862C67.55 26.0862 66.85 25.5862 66.35 24.8862L60.25 17.0862H54.65V23.8862C54.65 25.0862 53.65 26.0862 52.45 26.0862C51.15 26.0862 50.25 25.0862 50.25 23.8862V2.88616ZM61.15 13.1862C64.35 13.1862 66.35 11.4862 66.35 8.98616V8.88616C66.35 6.18616 64.45 4.68616 61.15 4.68616H54.65V13.1862H61.15ZM78.55 0.486145C77.35 0.486145 76.35 1.48615 76.35 2.68615V23.8861C76.35 25.0861 77.25 26.0861 78.55 26.0861C79.75 26.0861 80.75 25.0861 80.75 23.8861V18.6861L84.85 14.6861L92.95 25.0861C93.45 25.6861 93.95 26.0861 94.85 26.0861C96.05 26.0861 97.05 25.0861 97.05 23.8861C97.05 23.1861 96.85 22.7861 96.45 22.2861L87.95 11.8861L95.85 4.28615C96.35 3.78614 96.65 3.28614 96.65 2.58614C96.65 1.48614 95.75 0.486145 94.55 0.486145C93.75 0.486145 93.25 0.786145 92.75 1.28614L80.75 13.3861V2.68615C80.75 1.48615 79.75 0.486145 78.55 0.486145ZM102.25 2.68615C102.25 1.48615 103.25 0.486145 104.45 0.486145C105.65 0.486145 106.65 1.48615 106.65 2.68615V23.8861C106.65 25.0861 105.65 26.0861 104.45 26.0861C103.15 26.0861 102.25 25.0861 102.25 23.8861V2.68615ZM115.65 0.586108C114.45 0.586108 113.45 1.58611 113.45 2.78611H113.35V23.8861C113.35 25.0861 114.35 26.0861 115.55 26.0861C116.75 26.0861 117.75 25.0861 117.75 23.8861V7.88611L130.75 24.6861C131.35 25.4861 132.05 25.9861 133.05 25.9861H133.25C134.55 25.9861 135.45 24.9861 135.45 23.7861V2.58611C135.45 1.38611 134.45 0.386108 133.25 0.386108C132.05 0.386108 131.05 1.38611 131.05 2.58611V18.1861L118.45 1.88611C117.85 1.08611 117.25 0.586108 116.15 0.586108H115.65Z" fill="white"/>
</svg>
