<svg width="170" height="51" viewBox="0 0 170 51" fill="none" xmlns="http://www.w3.org/2000/svg">
<rect x="0.5" y="0.938232" width="169" height="49" rx="2.5" fill="#373F4A" stroke="#373F4A"/>
<path d="M53.9188 14.7557H49.3858L48.3936 16.9452H47.7778L51.37 9.12793H51.9345L55.5438 16.9452H54.928L53.9188 14.7557ZM53.7135 14.2767L51.7122 9.76084L49.6766 14.2767H53.7135Z" fill="white"/>
<path d="M61.1718 11.1293L58.5546 16.9453H57.9901L55.3729 11.1293H55.9545L58.2809 16.3466L60.6244 11.1293H61.1718Z" fill="white"/>
<path d="M66.4061 13.2504V16.9453H65.8758V15.9189C65.6604 16.2768 65.3493 16.5673 64.9775 16.7578C64.6057 16.9482 64.1881 17.0309 63.7718 16.9966C62.4718 16.9966 61.6678 16.3294 61.6678 15.286C61.6678 14.2426 62.2323 13.5754 63.8574 13.5754H65.8587V13.2333C65.8897 13.0014 65.8668 12.7654 65.7918 12.5437C65.7168 12.3221 65.5917 12.1207 65.4262 11.9552C65.2608 11.7898 65.0594 11.6647 64.8377 11.5897C64.6161 11.5147 64.3801 11.4918 64.1482 11.5227C63.4128 11.5107 62.6994 11.7729 62.1468 12.2583L61.856 11.8478C62.514 11.3029 63.3453 11.0116 64.1995 11.0267C64.4995 10.9903 64.8038 11.023 65.0893 11.1221C65.3748 11.2213 65.6338 11.3844 65.8467 11.5989C66.0595 11.8134 66.2206 12.0737 66.3175 12.3599C66.4145 12.6461 66.4448 12.9507 66.4061 13.2504ZM65.8587 15.2347V14.1228H63.8574C62.66 14.1228 62.2323 14.6189 62.2323 15.286C62.2323 15.9531 62.831 16.5176 63.8574 16.5176C64.2843 16.5458 64.709 16.4364 65.0692 16.2055C65.4294 15.9746 65.7061 15.6344 65.8587 15.2347Z" fill="white"/>
<path d="M68.5271 9.24768C68.5271 9.15634 68.5542 9.06704 68.6049 8.99109C68.6557 8.91514 68.7278 8.85594 68.8122 8.82098C68.8966 8.78603 68.9895 8.77688 69.0791 8.7947C69.1687 8.81252 69.2509 8.85651 69.3155 8.9211C69.3801 8.98569 69.4241 9.06799 69.4419 9.15758C69.4597 9.24717 69.4506 9.34003 69.4156 9.42443C69.3807 9.50882 69.3215 9.58095 69.2455 9.6317C69.1696 9.68245 69.0803 9.70954 68.989 9.70954C68.8665 9.70954 68.749 9.66088 68.6624 9.57426C68.5758 9.48765 68.5271 9.37017 68.5271 9.24768ZM68.6981 11.1293H69.2626V16.9453H68.6981V11.1293Z" fill="white"/>
<path d="M71.6233 8.66608H72.2391V16.9452H71.6917L71.6233 8.66608Z" fill="white"/>
<path d="M78.7394 13.2504V16.9453H78.2091V15.9189C77.9937 16.2768 77.6825 16.5673 77.3108 16.7578C76.939 16.9482 76.5214 17.0309 76.1051 16.9966C74.8051 16.9966 74.0011 16.3294 74.0011 15.286C74.0011 14.2426 74.5656 13.5754 76.1906 13.5754H78.192V13.2333C78.223 13.0014 78.2001 12.7654 78.1251 12.5437C78.0501 12.3221 77.925 12.1207 77.7595 11.9552C77.594 11.7898 77.3926 11.6647 77.171 11.5897C76.9493 11.5147 76.7134 11.4918 76.4814 11.5227C75.7461 11.5107 75.0326 11.7729 74.4801 12.2583L74.1893 11.8478C74.8472 11.3029 75.6786 11.0116 76.5327 11.0267C76.8327 10.9903 77.1371 11.023 77.4226 11.1221C77.708 11.2213 77.9671 11.3844 78.1799 11.5989C78.3928 11.8134 78.5538 12.0737 78.6508 12.3599C78.7478 12.6461 78.7781 12.9507 78.7394 13.2504ZM78.192 15.2347V14.1228H76.1906C74.9932 14.1228 74.5656 14.6189 74.5656 15.286C74.5656 15.9531 75.1643 16.5176 76.1906 16.5176C76.6175 16.5458 77.0422 16.4364 77.4024 16.2055C77.7626 15.9746 78.0393 15.6344 78.192 15.2347Z" fill="white"/>
<path d="M86.8474 14.1228C86.8663 14.5092 86.8055 14.8953 86.6688 15.2571C86.5322 15.619 86.3226 15.949 86.0532 16.2265C85.7837 16.504 85.46 16.7231 85.1023 16.8703C84.7446 17.0175 84.3604 17.0896 83.9737 17.0821C83.4814 17.0947 82.9955 16.9682 82.5718 16.717C82.1482 16.4659 81.804 16.1003 81.5789 15.6623V17.0308H81.0315V8.66608H81.596V12.4122C81.8284 11.9877 82.1732 11.6355 82.5926 11.3941C83.0121 11.1527 83.4899 11.0315 83.9737 11.0438C84.3712 11.0349 84.7662 11.1101 85.1326 11.2645C85.4991 11.4189 85.8288 11.649 86.1001 11.9397C86.3714 12.2304 86.5783 12.5752 86.7071 12.9514C86.8358 13.3276 86.8837 13.7268 86.8474 14.1228ZM86.283 14.1228C86.3108 13.7971 86.2706 13.4691 86.165 13.1597C86.0594 12.8503 85.8908 12.5662 85.6696 12.3254C85.4485 12.0846 85.1798 11.8924 84.8805 11.7609C84.5812 11.6294 84.2578 11.5614 83.9309 11.5614C83.604 11.5614 83.2806 11.6294 82.9813 11.7609C82.682 11.8924 82.4133 12.0846 82.1922 12.3254C81.9711 12.5662 81.8024 12.8503 81.6968 13.1597C81.5912 13.4691 81.5511 13.7971 81.5789 14.1228C81.5511 14.4485 81.5912 14.7765 81.6968 15.0859C81.8024 15.3953 81.9711 15.6794 82.1922 15.9202C82.4133 16.161 82.682 16.3532 82.9813 16.4847C83.2806 16.6162 83.604 16.6842 83.9309 16.6842C84.2578 16.6842 84.5812 16.6162 84.8805 16.4847C85.1798 16.3532 85.4485 16.161 85.6696 15.9202C85.8908 15.6794 86.0594 15.3953 86.165 15.0859C86.2706 14.7765 86.3108 14.4485 86.283 14.1228Z" fill="white"/>
<path d="M88.5752 8.66608H89.1397V16.9452H88.5752V8.66608Z" fill="white"/>
<path d="M96.4095 14.1228H91.3975C91.4261 14.6123 91.5992 15.0824 91.8949 15.4735C92.1906 15.8647 92.5956 16.1594 93.0587 16.3205C93.5219 16.4816 94.0223 16.5018 94.4969 16.3786C94.9715 16.2553 95.399 15.9942 95.7252 15.6281L96.0502 16.0045C95.7767 16.3124 95.4387 16.5563 95.0603 16.7189C94.6819 16.8815 94.2723 16.9588 93.8607 16.9453C93.4757 16.9661 93.0904 16.9087 92.7282 16.7766C92.3659 16.6446 92.0341 16.4405 91.7528 16.1768C91.4715 15.9131 91.2465 15.5952 91.0914 15.2422C90.9362 14.8891 90.8542 14.5084 90.8501 14.1228C90.8501 13.7567 90.9222 13.3941 91.0623 13.0558C91.2024 12.7175 91.4078 12.4102 91.6668 12.1512C91.9257 11.8923 92.233 11.687 92.5713 11.5468C92.9096 11.4067 93.2722 11.3346 93.6383 11.3346C94.0045 11.3346 94.367 11.4067 94.7053 11.5468C95.0436 11.687 95.351 11.8923 95.6099 12.1512C95.8688 12.4102 96.0742 12.7175 96.2143 13.0558C96.3544 13.3941 96.4266 13.7567 96.4266 14.1228H96.4095ZM91.4146 13.6781H95.8792C95.8303 13.1198 95.5739 12.6001 95.1607 12.2214C94.7474 11.8428 94.2073 11.6328 93.6469 11.6328C93.0864 11.6328 92.5463 11.8428 92.1331 12.2214C91.7198 12.6001 91.4635 13.1198 91.4146 13.6781Z" fill="white"/>
<path d="M100.378 14.1228C100.347 13.721 100.4 13.3172 100.532 12.9367C100.665 12.5562 100.875 12.2071 101.149 11.9115C101.422 11.6159 101.754 11.38 102.124 11.2187C102.493 11.0574 102.892 10.9742 103.294 10.9742C103.697 10.9742 104.096 11.0574 104.465 11.2187C104.835 11.38 105.167 11.6159 105.44 11.9115C105.714 12.2071 105.924 12.5562 106.057 12.9367C106.189 13.3172 106.242 13.721 106.211 14.1228C106.242 14.5246 106.189 14.9284 106.057 15.3089C105.924 15.6894 105.714 16.0384 105.44 16.334C105.167 16.6297 104.835 16.8655 104.465 17.0268C104.096 17.1881 103.697 17.2714 103.294 17.2714C102.892 17.2714 102.493 17.1881 102.124 17.0268C101.754 16.8655 101.422 16.6297 101.149 16.334C100.875 16.0384 100.665 15.6894 100.532 15.3089C100.4 14.9284 100.347 14.5246 100.378 14.1228ZM105.647 14.1228C105.647 13.5013 105.4 12.9052 104.96 12.4657C104.521 12.0262 103.925 11.7793 103.303 11.7793C102.681 11.7793 102.085 12.0262 101.646 12.4657C101.206 12.9052 100.96 13.5013 100.96 14.1228C100.96 14.7443 101.206 15.3404 101.646 15.7799C102.085 16.2194 102.681 16.4663 103.303 16.4663C103.925 16.4663 104.521 16.2194 104.96 15.7799C105.4 15.3404 105.647 14.7443 105.647 14.1228Z" fill="white"/>
<path d="M113.156 13.5412V16.9624H112.591V13.5412C112.642 13.2772 112.629 13.005 112.554 12.7468C112.48 12.4886 112.346 12.2516 112.162 12.055C111.979 11.8584 111.752 11.7078 111.5 11.6153C111.247 11.5228 110.977 11.4911 110.71 11.5227C110.409 11.5042 110.108 11.5509 109.828 11.6596C109.547 11.7684 109.293 11.9366 109.083 12.1527C108.874 12.3688 108.713 12.6278 108.613 12.9117C108.513 13.1957 108.475 13.498 108.503 13.7978V16.9452H107.939V11.1293H108.469V12.4122C108.69 11.9938 109.027 11.6483 109.44 11.4176C109.853 11.1869 110.323 11.0808 110.795 11.1122C111.118 11.0879 111.441 11.1347 111.743 11.2492C112.045 11.3636 112.319 11.543 112.544 11.7747C112.769 12.0064 112.94 12.2847 113.046 12.5899C113.152 12.8951 113.189 13.2199 113.156 13.5412Z" fill="white"/>
<path d="M121.213 16.586C120.881 16.8709 120.452 17.0179 120.015 16.9966C119.801 17.0179 119.585 16.9914 119.382 16.919C119.18 16.8466 118.995 16.73 118.843 16.5778C118.691 16.4256 118.575 16.2416 118.502 16.0389C118.43 15.8362 118.403 15.6199 118.425 15.4057V11.6083H117.364V11.1293H118.425V9.84637H118.989V11.1293H120.836V11.6083H118.989V15.3544C118.989 16.1071 119.365 16.5176 120.067 16.5176C120.399 16.5259 120.722 16.41 120.973 16.1926L121.213 16.586Z" fill="white"/>
<path d="M127.987 13.5412V16.9623H127.422V13.5412C127.473 13.2756 127.46 13.0017 127.385 12.742C127.309 12.4823 127.174 12.2442 126.988 12.0472C126.803 11.8502 126.574 11.7 126.319 11.6088C126.064 11.5177 125.792 11.4881 125.524 11.5227C125.223 11.5042 124.922 11.5509 124.641 11.6596C124.361 11.7684 124.107 11.9366 123.897 12.1527C123.687 12.3688 123.527 12.6278 123.427 12.9117C123.327 13.1957 123.289 13.498 123.317 13.7978V16.9452H122.77V8.66608H123.317V12.4122C123.537 12.0029 123.87 11.6657 124.276 11.4412C124.683 11.2166 125.146 11.1143 125.609 11.1464C125.929 11.1232 126.25 11.1694 126.55 11.2818C126.85 11.3941 127.122 11.5701 127.348 11.7975C127.574 12.025 127.748 12.2986 127.858 12.5995C127.968 12.9005 128.012 13.2217 127.987 13.5412Z" fill="white"/>
<path d="M135.205 14.1228H130.193C130.222 14.6123 130.395 15.0824 130.691 15.4735C130.987 15.8647 131.392 16.1594 131.855 16.3205C132.318 16.4816 132.818 16.5018 133.293 16.3786C133.767 16.2553 134.195 15.9942 134.521 15.6281L134.846 16.0045C134.573 16.3124 134.235 16.5563 133.856 16.7189C133.478 16.8815 133.068 16.9588 132.657 16.9453C132.272 16.9637 131.888 16.9046 131.527 16.7717C131.165 16.6387 130.835 16.4346 130.554 16.1713C130.273 15.9081 130.048 15.5911 129.892 15.2392C129.736 14.8873 129.652 14.5077 129.646 14.1228C129.646 13.7567 129.718 13.3941 129.858 13.0558C129.998 12.7175 130.204 12.4102 130.463 12.1512C130.722 11.8923 131.029 11.687 131.367 11.5468C131.706 11.4067 132.068 11.3346 132.434 11.3346C132.8 11.3346 133.163 11.4067 133.501 11.5468C133.84 11.687 134.147 11.8923 134.406 12.1512C134.665 12.4102 134.87 12.7175 135.01 13.0558C135.15 13.3941 135.222 13.7567 135.222 14.1228H135.205ZM130.21 13.6781H134.675C134.626 13.1198 134.37 12.6001 133.957 12.2214C133.543 11.8428 133.003 11.6328 132.443 11.6328C131.882 11.6328 131.342 11.8428 130.929 12.2214C130.516 12.6001 130.259 13.1198 130.21 13.6781Z" fill="white"/>
<path d="M56.6728 30.6469H58.965V35.7786C57.4923 36.9038 55.6865 37.5057 53.8333 37.4892C52.7333 37.4329 51.664 37.1071 50.7195 36.5406C49.7749 35.9741 48.984 35.1842 48.4163 34.2404C47.8486 33.2966 47.5216 32.2277 47.4638 31.1278C47.4061 30.0279 47.6195 28.9307 48.0853 27.9326C48.551 26.9345 49.2549 26.0662 50.135 25.4039C51.015 24.7417 52.0444 24.3058 53.1324 24.1346C54.2204 23.9634 55.3338 24.0622 56.3747 24.4223C57.4156 24.7823 58.3521 25.3926 59.1018 26.1994L57.5794 27.6876C57.116 27.2047 56.5576 26.8232 55.9393 26.567C55.321 26.3109 54.6563 26.1857 53.9872 26.1994C52.7714 26.1994 51.6053 26.6824 50.7456 27.5422C49.8859 28.4019 49.4029 29.5679 49.4029 30.7838C49.4029 31.9996 49.8859 33.1657 50.7456 34.0254C51.6053 34.8851 52.7714 35.3681 53.9872 35.3681C54.9282 35.3906 55.8573 35.1539 56.6728 34.6839V30.6469Z" fill="white"/>
<path d="M61.1033 32.3404C61.0693 31.285 61.3511 30.2435 61.9127 29.3492C62.4743 28.455 63.29 27.7488 64.2555 27.321C65.2209 26.8933 66.2921 26.7636 67.3318 26.9485C68.3714 27.1334 69.3322 27.6244 70.091 28.3588C70.8498 29.0931 71.3721 30.0373 71.591 31.0703C71.8098 32.1033 71.7153 33.1782 71.3195 34.1571C70.9236 35.1361 70.2445 35.9746 69.3692 36.5652C68.4938 37.1558 67.4621 37.4716 66.4061 37.4721C65.7137 37.5126 65.0204 37.4089 64.3701 37.1676C63.7198 36.9263 63.1267 36.5527 62.6282 36.0703C62.1298 35.5879 61.7369 35.0074 61.4744 34.3654C61.2119 33.7233 61.0856 33.0338 61.1033 32.3404ZM69.3654 32.3404C69.3654 31.5556 69.0536 30.8028 68.4986 30.2479C67.9437 29.6929 67.191 29.3811 66.4061 29.3811C65.6213 29.3811 64.8685 29.6929 64.3136 30.2479C63.7586 30.8028 63.4468 31.5556 63.4468 32.3404C63.4468 33.1253 63.7586 33.878 64.3136 34.4329C64.8685 34.9879 65.6213 35.2997 66.4061 35.2997C67.191 35.2997 67.9437 34.9879 68.4986 34.4329C69.0536 33.878 69.3654 33.1253 69.3654 32.3404Z" fill="white"/>
<path d="M73.1287 32.3404C73.0947 31.2843 73.3769 30.242 73.9392 29.3474C74.5015 28.4528 75.3184 27.7465 76.2848 27.3193C77.2513 26.8921 78.3234 26.7633 79.3635 26.9496C80.4036 27.1359 81.3644 27.6287 82.1225 28.3647C82.8807 29.1008 83.4016 30.0466 83.6186 31.0808C83.8355 32.1149 83.7385 33.1904 83.34 34.169C82.9415 35.1477 82.2598 35.985 81.3821 36.5735C80.5045 37.1621 79.4711 37.475 78.4144 37.4721C77.7234 37.5101 77.0319 37.4046 76.3837 37.1622C75.7354 36.9198 75.1444 36.5458 74.6478 36.0637C74.1513 35.5816 73.76 35.0019 73.4985 34.3611C73.2371 33.7203 73.1112 33.0323 73.1287 32.3404ZM81.3908 32.3404C81.3908 31.5555 81.079 30.8028 80.524 30.2479C79.9691 29.6929 79.2163 29.3811 78.4315 29.3811C77.6466 29.3811 76.8939 29.6929 76.339 30.2479C75.784 30.8028 75.4722 31.5555 75.4722 32.3404C75.4722 33.1252 75.784 33.8779 76.339 34.4329C76.8939 34.9879 77.6466 35.2997 78.4315 35.2997C79.2163 35.2997 79.9691 34.9879 80.524 34.4329C81.079 33.8779 81.3908 33.1252 81.3908 32.3404Z" fill="white"/>
<path d="M95.8449 27.3626V35.8128C95.8449 39.4221 93.9633 41.0643 90.4737 41.0643C88.7479 41.1364 87.0463 40.6374 85.6328 39.6445L86.6763 37.9339C87.7405 38.7183 89.0321 39.1328 90.354 39.1142C92.5435 39.1142 93.5186 38.1221 93.5186 36.1036V35.5734C93.0892 36.0199 92.5696 36.3698 91.9945 36.5998C91.4193 36.8299 90.8018 36.9348 90.1829 36.9076C88.9081 36.9076 87.6855 36.4012 86.7841 35.4998C85.8827 34.5983 85.3762 33.3757 85.3762 32.1009C85.3762 30.8261 85.8827 29.6035 86.7841 28.702C87.6855 27.8006 88.9081 27.2942 90.1829 27.2942C90.8242 27.2638 91.4641 27.3771 92.056 27.6257C92.6479 27.8743 93.1768 28.2519 93.6041 28.7311V27.3968L95.8449 27.3626ZM93.5528 32.0496C93.5905 31.4434 93.4451 30.8399 93.1354 30.3175C92.8257 29.7951 92.366 29.3779 91.8162 29.1201C91.2663 28.8623 90.6515 28.7758 90.0519 28.8719C89.4522 28.9679 88.8953 29.2422 88.4535 29.6589C88.0117 30.0756 87.7054 30.6155 87.5744 31.2086C87.4435 31.8016 87.4939 32.4203 87.7191 32.9843C87.9444 33.5483 88.334 34.0316 88.8374 34.3713C89.3409 34.7109 89.9348 34.8914 90.5422 34.8891C90.9303 34.9177 91.3202 34.8651 91.687 34.7348C92.0538 34.6044 92.3894 34.3992 92.6726 34.1321C92.9558 33.8651 93.1802 33.542 93.3318 33.1835C93.4833 32.8249 93.5586 32.4388 93.5528 32.0496Z" fill="white"/>
<path d="M98.9069 23.4968H101.319V37.3182H98.9924L98.9069 23.4968Z" fill="white"/>
<path d="M113.618 33.093H105.801C105.953 33.8175 106.367 34.4605 106.963 34.8991C107.56 35.3377 108.297 35.5412 109.034 35.4707C109.534 35.4874 110.033 35.4003 110.498 35.2148C110.963 35.0294 111.385 34.7496 111.736 34.3931L112.985 35.8299C112.234 36.5762 111.287 37.0942 110.254 37.3238C109.221 37.5533 108.144 37.485 107.148 37.1267C106.152 36.7685 105.278 36.135 104.628 35.2998C103.977 34.4647 103.577 33.4622 103.474 32.4088C103.448 31.7278 103.562 31.0487 103.811 30.4141C104.059 29.7795 104.436 29.2032 104.918 28.7213C105.4 28.2394 105.977 27.8623 106.611 27.6138C107.246 27.3653 107.925 27.2506 108.606 27.2771C109.282 27.2495 109.957 27.3642 110.587 27.6137C111.216 27.8632 111.787 28.2421 112.26 28.7257C112.734 29.2093 113.102 29.787 113.338 30.4214C113.575 31.0559 113.676 31.7329 113.635 32.4088C113.652 32.5799 113.635 32.9391 113.618 33.093ZM105.783 31.5364H111.428C111.355 30.8531 111.024 30.2233 110.503 29.7752C109.982 29.3272 109.31 29.0945 108.623 29.1245C107.934 29.0978 107.259 29.3308 106.733 29.7774C106.208 30.2241 105.869 30.8518 105.783 31.5364Z" fill="white"/>
<path d="M132.109 28.9192C132.109 31.7759 129.988 33.5549 126.55 33.5549H123.608V37.3181H121.196V24.2665H126.55C130.056 24.2665 132.109 26.0968 132.109 28.9192ZM129.663 28.9192C129.663 27.2087 128.568 26.3192 126.447 26.3192H123.608V31.4509H126.447C128.688 31.5022 129.731 30.5443 129.731 28.9192H129.663Z" fill="white"/>
<path d="M134.572 23.4968H136.899V37.3182H134.572V23.4968Z" fill="white"/>
<path d="M148.291 31.4851V37.3182H146.085V36.1036C145.719 36.5742 145.24 36.9447 144.693 37.1809C144.146 37.4171 143.548 37.5114 142.954 37.455C140.679 37.455 139.242 36.2063 139.242 34.4615C139.242 32.7167 140.371 31.5022 143.382 31.5022H145.965V31.3483C145.965 29.9969 145.144 29.1929 143.485 29.1929C142.393 29.1804 141.329 29.5293 140.457 30.1851L139.55 28.4745C140.789 27.6352 142.262 27.21 143.758 27.26C146.632 27.26 148.291 28.6113 148.291 31.4851ZM145.965 34.2049V33.0417H143.553C141.962 33.0417 141.534 33.6404 141.534 34.376C141.534 35.1115 142.253 35.7444 143.433 35.7444C143.963 35.7837 144.492 35.6564 144.946 35.3803C145.4 35.1043 145.756 34.6934 145.965 34.2049Z" fill="white"/>
<path d="M160.402 27.3626L155.749 38.0708C155.539 38.9263 155.043 39.6844 154.343 40.2195C153.643 40.7546 152.781 41.0345 151.9 41.0129C150.933 41.025 149.991 40.705 149.232 40.1063L150.173 38.3958C150.634 38.8368 151.245 39.0873 151.883 39.0971C152.704 39.0971 153.183 38.7037 153.594 37.7115L153.748 37.3181L149.42 27.3284H151.832L154.962 34.6838L158.11 27.3284L160.402 27.3626Z" fill="white"/>
<path d="M42.3383 24.7968L36.0776 21.1875L30.9459 26.1653L35.65 30.7154L42.3554 26.8495C42.5368 26.7465 42.6877 26.5972 42.7926 26.4169C42.8976 26.2366 42.9529 26.0318 42.9529 25.8231C42.9529 25.6145 42.8976 25.4097 42.7926 25.2294C42.6877 25.0491 42.5368 24.8998 42.3554 24.7968H42.3383Z" fill="white"/>
<path d="M35.0171 20.5717L28.1235 16.586L13.0192 8.85425L30.0736 25.3442L35.0171 20.5717Z" fill="white"/>
<path d="M13.2758 43.2367L28.1406 35.0431L34.5724 31.3311L30.0736 26.9863L13.2758 43.2367Z" fill="white"/>
<path d="M12.0099 9.52136L11.9928 42.8262L29.2354 26.1652L12.0099 9.52136Z" fill="white"/>
</svg>
