<svg width="15" height="10" viewBox="0 0 15 10" fill="none" xmlns="http://www.w3.org/2000/svg">
<path d="M8.05878 9.47652L13.9086 3.618C14.1362 3.40225 14.25 3.13284 14.25 2.80923C14.25 2.48562 14.1361 2.2162 13.9086 2.00045L13.2345 1.31754C13.0129 1.09584 12.7434 0.984989 12.4259 0.984989C12.1144 0.984989 11.8418 1.09581 11.6082 1.31754L7.24997 5.68459L2.88276 1.31735C2.66109 1.09571 2.39165 0.984863 2.07411 0.984863C1.76265 0.984863 1.4899 1.09568 1.25643 1.31735L0.582486 2.00033C0.360818 2.22199 0.25 2.49169 0.25 2.8091C0.25 3.12664 0.360818 3.39627 0.582486 3.61788L6.43229 9.47652C6.66591 9.69828 6.93851 9.80923 7.25 9.80923C7.5675 9.80926 7.83711 9.69828 8.05878 9.47652Z" fill="#606577"/>
</svg>
