<svg width="20" height="18" viewBox="0 0 20 18" fill="none" xmlns="http://www.w3.org/2000/svg">
<path d="M18.5174 6.80139L17.0815 2.01527C16.8512 1.24769 16.1581 0.732056 15.3571 0.732056H5.14297C4.34198 0.732056 3.6488 1.24769 3.41856 2.01527L1.98271 6.80139C1.21748 7.00866 0.650002 7.70212 0.650002 8.53209V13.9321C0.650002 14.5936 1.18847 15.1321 1.84999 15.1321V15.7321C1.84999 16.7247 2.65741 17.5321 3.65 17.5321H4.84999C5.84258 17.5321 6.64999 16.7247 6.64999 15.7321V15.1321H13.85V15.7321C13.85 16.7247 14.6574 17.5321 15.65 17.5321H16.85C17.8426 17.5321 18.65 16.7247 18.65 15.7321V15.1321C19.3115 15.1321 19.85 14.5936 19.85 13.9321V8.53209C19.8501 7.70212 19.2826 7.00866 18.5174 6.80139ZM4.56814 2.35982C4.6449 2.10376 4.87577 1.93208 5.14293 1.93208H15.357C15.6242 1.93208 15.8551 2.10376 15.9318 2.35982L17.2435 6.73208H3.25641L4.56814 2.35982ZM5.44997 15.7322C5.44997 16.0632 5.18102 16.3322 4.84995 16.3322H3.64996C3.3189 16.3322 3.04995 16.0632 3.04995 15.7322V15.1322H5.44997V15.7322ZM17.45 15.7322C17.45 16.0632 17.1811 16.3322 16.85 16.3322H15.65C15.319 16.3322 15.05 16.0632 15.05 15.7322V15.1322H17.45V15.7322ZM1.84996 13.9322V8.53216C1.84996 8.2011 2.11891 7.93214 2.44997 7.93214H18.05C18.3811 7.93214 18.65 8.2011 18.65 8.53216V13.9322H1.84996Z" fill="white"/>
<path d="M4.92027 9.41321C3.92769 9.41321 3.12027 10.2206 3.12027 11.2132C3.12027 12.2058 3.92769 13.0132 4.92027 13.0132C5.91286 13.0132 6.72028 12.2058 6.72028 11.2132C6.72028 10.2206 5.91286 9.41321 4.92027 9.41321ZM4.92027 11.8132C4.58921 11.8132 4.32026 11.5443 4.32026 11.2132C4.32026 10.8822 4.58921 10.6132 4.92027 10.6132C5.25134 10.6132 5.52029 10.8822 5.52029 11.2132C5.52029 11.5443 5.25134 11.8132 4.92027 11.8132Z" fill="white"/>
<path d="M16.0365 9.41321C15.0439 9.41321 14.2365 10.2206 14.2365 11.2132C14.2365 12.2058 15.0439 13.0132 16.0365 13.0132C17.0291 13.0132 17.8365 12.2058 17.8365 11.2132C17.8365 10.2206 17.0291 9.41321 16.0365 9.41321ZM16.0365 11.8132C15.7055 11.8132 15.4365 11.5443 15.4365 11.2132C15.4365 10.8822 15.7055 10.6132 16.0365 10.6132C16.3676 10.6132 16.6365 10.8822 16.6365 11.2132C16.6365 11.5443 16.3676 11.8132 16.0365 11.8132Z" fill="white"/>
</svg>
