<svg width="20" height="20" viewBox="0 0 20 20" fill="none" xmlns="http://www.w3.org/2000/svg">
<path d="M7.63153 11.2C7.41873 11.2 7.21394 11.1152 7.06354 10.9632L4.88196 8.76323C4.57076 8.44963 4.57316 7.94324 4.88676 7.63204C5.20036 7.32164 5.70755 7.32324 6.01795 7.63684L7.59233 9.22482L10.8451 5.47606C11.1339 5.14167 11.6403 5.10647 11.9739 5.39606C12.3075 5.68566 12.3435 6.19125 12.0539 6.52485L8.23553 10.9248C8.08993 11.0928 7.88033 11.192 7.65793 11.2C7.64913 11.2 7.64033 11.2 7.63153 11.2Z" fill="white"/>
<path d="M19.0498 19.5999C18.845 19.5999 18.6402 19.5215 18.4842 19.3655L12.9003 13.7816C12.5875 13.4688 12.5875 12.9632 12.9003 12.6504C13.2131 12.3376 13.7187 12.3376 14.0315 12.6504L19.6154 18.2343C19.9282 18.5471 19.9282 19.0527 19.6154 19.3655C19.4594 19.5215 19.2546 19.5999 19.0498 19.5999Z" fill="white"/>
<path d="M8.44992 15.9999C4.14916 15.9999 0.650002 12.5008 0.650002 8.2C0.650002 3.89925 4.14916 0.400085 8.44992 0.400085C12.7507 0.400085 16.2498 3.89925 16.2498 8.2C16.2498 12.5008 12.7507 15.9999 8.44992 15.9999ZM8.44992 2.00007C5.03156 2.00007 2.24998 4.78164 2.24998 8.2C2.24998 11.6184 5.03156 14.3999 8.44992 14.3999C11.8683 14.3999 14.6499 11.6184 14.6499 8.2C14.6499 4.78164 11.8683 2.00007 8.44992 2.00007Z" fill="white"/>
</svg>
