<svg width="20" height="20" viewBox="0 0 20 20" fill="none" xmlns="http://www.w3.org/2000/svg">
<path d="M19.6492 9.7793L18.2784 8.40851L10.7352 0.865342C10.4675 0.59762 10.0333 0.59762 9.76559 0.865342L2.22238 8.40851L0.850909 9.78002C0.587808 10.0524 0.595322 10.4866 0.867744 10.7497C1.1335 11.0063 1.55479 11.0063 1.82054 10.7497L2.02076 10.548V19.1788C2.02076 19.5575 2.32778 19.8646 2.70651 19.8646H17.7929C18.1716 19.8646 18.4786 19.5575 18.4786 19.1788V10.548L18.6795 10.749C18.952 11.0121 19.3861 11.0045 19.6492 10.7321C19.9058 10.4664 19.9058 10.0451 19.6492 9.7793ZM12.307 18.4931H8.19249V13.0071H12.307V18.4931ZM17.1071 18.4931H13.6784V12.3214C13.6784 11.9426 13.3714 11.6356 12.9927 11.6356H7.50673C7.12799 11.6356 6.82098 11.9426 6.82098 12.3214V18.4931H3.39227V9.17655L10.2497 2.3191L17.1071 9.17655V18.4931Z" fill="white"/>
</svg>
