<svg width="23" height="23" viewBox="0 0 23 23" fill="none" xmlns="http://www.w3.org/2000/svg">
<path d="M15.3628 0.124023H7.13705C3.35182 0.124023 0.282227 3.19361 0.282227 6.97885V15.2046C0.282227 18.9899 3.35182 22.0595 7.13705 22.0595H15.3628C19.1481 22.0595 22.2177 18.9899 22.2177 15.2046V6.97885C22.2177 3.19361 19.1481 0.124023 15.3628 0.124023ZM20.1612 15.2046C20.1612 17.8506 18.0088 20.003 15.3628 20.003H7.13705C4.49109 20.003 2.33867 17.8506 2.33867 15.2046V6.97885C2.33867 4.33288 4.49109 2.18047 7.13705 2.18047H15.3628C18.0088 2.18047 20.1612 4.33288 20.1612 6.97885V15.2046Z" fill="#606577"/>
<path d="M11.2499 5.60791C8.22146 5.60791 5.76607 8.06331 5.76607 11.0918C5.76607 14.1202 8.22146 16.5756 11.2499 16.5756C14.2784 16.5756 16.7338 14.1202 16.7338 11.0918C16.7338 8.06331 14.2784 5.60791 11.2499 5.60791ZM11.2499 14.5192C9.36074 14.5192 7.82251 12.981 7.82251 11.0918C7.82251 9.20121 9.36074 7.66436 11.2499 7.66436C13.1391 7.66436 14.6773 9.20121 14.6773 11.0918C14.6773 12.981 13.1391 14.5192 11.2499 14.5192Z" fill="#606577"/>
<path d="M17.1452 6.27769C17.7421 6.27769 18.2259 5.79382 18.2259 5.19695C18.2259 4.60007 17.7421 4.11621 17.1452 4.11621C16.5483 4.11621 16.0644 4.60007 16.0644 5.19695C16.0644 5.79382 16.5483 6.27769 17.1452 6.27769Z" fill="#606577"/>
</svg>
