<svg width="26" height="26" viewBox="0 0 26 26" fill="none" xmlns="http://www.w3.org/2000/svg">
<path d="M12.7505 0.896973C5.84897 0.896973 0.25 6.48866 0.25 13.3904C0.25 20.2987 5.84897 25.897 12.7505 25.897C19.6558 25.897 25.25 20.2987 25.25 13.3904C25.2501 6.48866 19.6558 0.896973 12.7505 0.896973ZM13.6413 20.3457C13.351 20.6041 13.0145 20.734 12.6333 20.734C12.239 20.734 11.895 20.6064 11.6014 20.3509C11.3073 20.0958 11.1599 19.7387 11.1599 19.2799C11.1599 18.8729 11.3025 18.5303 11.5868 18.2526C11.871 17.975 12.2197 17.8362 12.6333 17.8362C13.0404 17.8362 13.383 17.975 13.6611 18.2526C13.9388 18.5303 14.078 18.8728 14.078 19.2799C14.0775 19.7321 13.9321 20.0874 13.6413 20.3457ZM17.2615 11.3712C17.0384 11.7848 16.7735 12.1415 16.4662 12.4422C16.1598 12.7429 15.6088 13.2483 14.8135 13.9588C14.5942 14.1593 14.4178 14.3353 14.2855 14.4868C14.1533 14.6388 14.0545 14.7776 13.99 14.9037C13.925 15.0298 13.8752 15.1559 13.8399 15.282C13.8046 15.4076 13.7514 15.6293 13.6794 15.9459C13.5571 16.6179 13.1726 16.9539 12.5265 16.9539C12.1905 16.9539 11.9081 16.8442 11.678 16.6245C11.4488 16.4047 11.3345 16.0786 11.3345 15.6457C11.3345 15.1032 11.4187 14.6331 11.5867 14.2355C11.7538 13.8378 11.9773 13.4892 12.255 13.1885C12.5331 12.8878 12.9076 12.5311 13.3796 12.1175C13.7933 11.7556 14.0921 11.4827 14.2761 11.2987C14.4605 11.1142 14.6154 10.9091 14.741 10.6832C14.8676 10.4568 14.9298 10.2117 14.9298 9.94677C14.9298 9.42964 14.7382 8.9939 14.3533 8.63863C13.9689 8.28336 13.4728 8.10547 12.8653 8.10547C12.1543 8.10547 11.631 8.28475 11.295 8.64332C10.959 9.00189 10.6753 9.52985 10.4423 10.2277C10.2221 10.958 9.80515 11.3232 9.19195 11.3232C8.83007 11.3232 8.52469 11.1956 8.27575 10.9406C8.02728 10.6855 7.90304 10.4093 7.90304 10.1119C7.90304 9.4983 8.10022 8.87621 8.49412 8.24614C8.88848 7.61607 9.46352 7.09419 10.2197 6.68103C10.9754 6.26741 11.8578 6.06034 12.8653 6.06034C13.8022 6.06034 14.6291 6.23349 15.3462 6.57938C16.0634 6.92475 16.6177 7.39487 17.0088 7.98963C17.3994 8.58393 17.5951 9.23004 17.5951 9.9279C17.596 10.4762 17.4845 10.9576 17.2615 11.3712Z" fill="#00FF91"/>
</svg>
