<svg width="106" height="106" viewBox="0 0 106 106" fill="none" xmlns="http://www.w3.org/2000/svg">
<path d="M104.937 34.9405L94.4557 24.4592V2.73463C94.4557 1.60117 93.5367 0.682373 92.4034 0.682373H62.1692C61.0359 0.682373 60.1169 1.60117 60.1169 2.73463C60.1169 3.86809 61.0359 4.78688 62.1692 4.78688H90.3512V46.6235L52.9078 84.0671L15.6491 46.8084V4.78688H43.6989C44.8321 4.78688 45.7511 3.86809 45.7511 2.73463C45.7511 1.60117 44.8321 0.682373 43.6989 0.682373H13.5968C12.4636 0.682373 11.5446 1.60117 11.5446 2.73463V24.4592L1.06351 34.9405C0.67871 35.3253 0.462402 35.8473 0.462402 36.3916V95.4965C0.462402 101.155 5.06561 105.758 10.7237 105.758H95.2766C100.935 105.758 105.538 101.155 105.538 95.4965V36.3916C105.538 35.8473 105.322 35.3253 104.937 34.9405ZM101.433 95.4965C101.433 96.4457 101.217 97.3454 100.832 98.1493L72.7311 70.0486L101.433 41.3464V95.4965ZM94.4557 30.264L100.583 36.3916L94.4557 42.519V30.264ZM5.16863 98.1493C4.78322 97.3454 4.56691 96.4459 4.56691 95.4965V41.5309L33.1768 70.1409L5.16863 98.1493ZM11.5446 42.7037L5.3246 36.484L11.5446 30.264V42.7037ZM10.7237 101.653C9.77451 101.653 8.8748 101.437 8.07114 101.052L36.0793 73.0432L51.4566 88.4206C51.8416 88.8054 52.3635 89.0217 52.9078 89.0217C53.452 89.0217 53.9739 88.8054 54.3589 88.4206L69.8286 72.9511L97.9293 101.052C97.1254 101.437 96.2259 101.654 95.2766 101.654H10.7237V101.653Z" fill="white"/>
<path d="M53 4.78615C53.5398 4.78615 54.0692 4.56656 54.451 4.18484C54.8325 3.80312 55.0523 3.27364 55.0523 2.7339C55.0523 2.19415 54.8327 1.66467 54.451 1.28295C54.0692 0.901232 53.5398 0.681641 53 0.681641C52.4582 0.681641 51.9308 0.901232 51.5491 1.28295C51.1676 1.66467 50.9478 2.19415 50.9478 2.7339C50.9478 3.27364 51.1673 3.80312 51.5491 4.18484C51.9308 4.56656 52.4582 4.78615 53 4.78615Z" fill="white"/>
<path d="M33.5857 25.5503C30.8014 30.6093 30.0689 36.4416 31.5238 41.9726C32.7839 46.7638 35.5043 50.897 39.3917 53.9256C43.1344 56.8416 47.7965 58.5195 52.5188 58.6501C52.5382 58.6507 52.5573 58.6509 52.5764 58.6509C53.6836 58.6509 54.596 57.769 54.6268 56.6553C54.658 55.5224 53.7651 54.5784 52.632 54.5472C44.5911 54.3249 37.5437 48.7247 35.493 40.9288C33.0236 31.5392 38.3414 21.8753 47.5995 18.928C52.2963 17.4328 57.2822 17.8732 61.6388 20.1676C65.9867 22.4573 69.1654 26.3053 70.593 31.0052C71.5023 34.4394 71.2074 37.6231 69.6091 41.6422C69.1533 42.788 67.7383 45.4532 64.4465 45.4532C63.9258 45.4532 63.399 45.2119 62.9629 44.7737C62.378 44.186 62.0451 43.356 62.0494 42.4867V25.5195C62.0494 24.386 61.1304 23.4672 59.9972 23.4672C58.8637 23.4672 57.9449 24.386 57.9449 25.5195V26.1731C56.3429 24.8377 54.3531 24.0753 52.1237 24.0753C46.9405 24.0753 41.5792 28.5687 41.5792 36.0882C41.5792 39.4024 42.6296 42.5064 44.5367 44.8283C46.4699 47.1825 49.1568 48.5324 51.9078 48.5324C54.4865 48.5324 56.8092 47.3938 58.5776 45.4955C58.9335 46.302 59.4307 47.0429 60.0534 47.6686C61.2655 48.8867 62.8256 49.5575 64.4465 49.5575C69.1888 49.5575 72.1929 46.2522 73.423 43.1588C75.3521 38.3079 75.7 34.2233 74.5501 29.9148C74.5444 29.8934 74.5382 29.8721 74.5319 29.851C72.7891 24.0759 68.8894 19.3471 63.5513 16.5359C58.2144 13.7252 52.1071 13.1856 46.3544 15.0169C40.904 16.752 36.3694 20.4927 33.5857 25.5503ZM51.908 44.4279C48.476 44.4279 45.6839 40.6867 45.6839 36.088C45.6839 31.1377 48.9583 28.1796 52.1239 28.1796C55.5345 28.1796 57.9166 31.4062 57.9166 36.0258C57.9164 40.6588 55.221 44.4279 51.908 44.4279Z" fill="white"/>
</svg>
