<svg width="22" height="21" viewBox="0 0 22 21" fill="none" xmlns="http://www.w3.org/2000/svg">
<path d="M18.7328 17.5307C18.661 17.5307 18.5893 17.5184 18.521 17.4957L1.24113 11.5899C0.992655 11.5042 0.819418 11.2802 0.79842 11.0186C0.779171 10.757 0.916536 10.5085 1.14839 10.3869L20.8343 0.106434C21.0539 -0.00643252 21.3191 0.0110661 21.5185 0.15368C21.7198 0.297168 21.8239 0.540399 21.788 0.78538L19.382 16.9716C19.3531 17.1641 19.2402 17.3338 19.0731 17.4353C18.9699 17.4983 18.8517 17.5307 18.7328 17.5307ZM3.11174 10.8418L18.199 15.9987L20.2998 1.86679L3.11174 10.8418Z" fill="#373F4A"/>
<path d="M9.10848 20.1548C9.04024 20.1548 8.97112 20.1443 8.90463 20.1224C8.63427 20.0332 8.45229 19.782 8.45229 19.4986V13.5928C8.45229 13.4274 8.51528 13.2664 8.62815 13.1448L20.6584 0.239592C20.9052 -0.0263866 21.3225 -0.0395105 21.5867 0.20722C21.8519 0.45395 21.8659 0.869543 21.6191 1.13552L9.76468 13.8509V17.4976L11.9546 14.5167C12.169 14.2262 12.5802 14.1615 12.8724 14.3767C13.1647 14.5911 13.2268 15.0023 13.0124 15.2945L9.63782 19.8879C9.51095 20.0585 9.31322 20.1548 9.10848 20.1548Z" fill="#373F4A"/>
</svg>
