<svg width="71" height="68" viewBox="0 0 71 68" fill="none" xmlns="http://www.w3.org/2000/svg">
<path d="M32.144 3.08039C33.3414 -0.604853 38.555 -0.604845 39.7524 3.0804L45.2736 20.0729C45.8091 21.721 47.3449 22.8368 49.0778 22.8368H66.9448C70.8197 22.8368 72.4308 27.7953 69.296 30.0729L54.8413 40.5749C53.4393 41.5934 52.8527 43.3989 53.3882 45.047L58.9094 62.0395C60.1068 65.7248 55.8889 68.7893 52.754 66.5117L38.2993 56.0097C36.8974 54.9911 34.999 54.9911 33.597 56.0097L19.1423 66.5117C16.0075 68.7893 11.7896 65.7248 12.987 62.0395L18.5082 45.047C19.0437 43.3989 18.457 41.5934 17.0551 40.5749L2.60039 30.0729C-0.534465 27.7953 1.07664 22.8368 4.95154 22.8368H22.8185C24.5514 22.8368 26.0873 21.721 26.6228 20.0729L32.144 3.08039Z" fill="#CDCFD7"/>
</svg>
