<svg width="22" height="22" viewBox="0 0 22 22" fill="none" xmlns="http://www.w3.org/2000/svg">
<path d="M11.2527 0.45166H11.2474C5.38078 0.45166 0.610107 5.22366 0.610107 11.0916C0.610107 13.4191 1.36022 15.5763 2.63568 17.3279L1.30968 21.2806L5.3994 19.9732C7.08183 21.0878 9.08879 21.7315 11.2527 21.7315C17.1193 21.7315 21.8899 16.9582 21.8899 11.0916C21.8899 5.22499 17.1193 0.45166 11.2527 0.45166ZM17.4438 15.4765C17.1871 16.2014 16.1683 16.8025 15.3557 16.9781C14.7998 17.0965 14.0736 17.1909 11.6291 16.1775C8.50226 14.882 6.48866 11.7047 6.33172 11.4986C6.18143 11.2924 5.06823 9.81611 5.06823 8.28929C5.06823 6.76246 5.84362 6.019 6.15616 5.6998C6.41285 5.43779 6.83712 5.31809 7.24409 5.31809C7.37576 5.31809 7.49413 5.32474 7.60053 5.33006C7.91308 5.34336 8.07002 5.36198 8.27617 5.85541C8.53285 6.47385 9.15795 8.00068 9.23243 8.15762C9.30824 8.31456 9.38405 8.52736 9.27765 8.7335C9.1779 8.9463 9.09012 9.04073 8.93318 9.22161C8.77624 9.40249 8.62728 9.54081 8.47034 9.73498C8.3267 9.90389 8.16445 10.0848 8.34532 10.3973C8.5262 10.7032 9.1513 11.7233 10.0717 12.5426C11.2593 13.5999 12.2222 13.9378 12.5667 14.0814C12.8234 14.1878 13.1293 14.1625 13.3168 13.963C13.5549 13.7063 13.8488 13.2807 14.1481 12.8618C14.3609 12.5612 14.6295 12.524 14.9115 12.6304C15.1988 12.7301 16.7189 13.4816 17.0315 13.6372C17.344 13.7941 17.5502 13.8686 17.626 14.0003C17.7005 14.1319 17.7005 14.7504 17.4438 15.4765Z" fill="#606577"/>
</svg>
